<svg xmlns="http://www.w3.org/2000/svg" viewBox="-203 176 218 145"><path fill="#0086bd" d="M-114.8,279.9c0,0.8,0,1.6,0,2.5c0,0.4,0,0.8,0,1.1c0.6,14.2,7.5,23,13.9,28.3l0,0  c-10.8,6.2-23.6,8.8-35.1,8.8c-42,0-66.8-29.7-66.8-70.6c0-42.6,25.6-73.4,69.3-73.4c31.7,0,57.7,16.8,60.5,49.7h-38.1  c0-12.5-8.8-19.2-21.1-19.2c-19.7,0-25.8,13.9-25.8,39.5c0,26,5.7,41.2,25.9,41.2C-124.6,287.9-118.4,285.3-114.8,279.9  L-114.8,279.9z"/><path fill="#309c35" d="M-34.6,282.9c-4.6,7.1-12,11.5-20.2,11.5c-11.2,0-20.5-5.1-20.5-17.2c0-17.9,26.1-24.2,46.1-25.4v5.3  C-29.1,268.7-29.3,274.9-34.6,282.9z M-71.8,218.6c3-8.1,11.1-11.6,22.1-11.6c15.7,0,20.2,11,20.4,20.1l0.1,4.4  c-43.4,2.1-84.2,10.2-83.4,49.9c0.6,27.8,25.7,39.2,43,39.1c20.1,0,31.3-5.4,42.4-19.1c0.2,5.8,0.9,11.9,1.9,16.4h38.9  c-2.2-6.8-2.7-13.6-2.7-20.7V225c0-17.5-3.3-27.3-12.7-35.8c-8.9-8.1-23.5-12.6-43.2-12.6c-18,0-33.5,4.1-44.9,11.9l0,0  C-80.5,195.9-74.3,206.2-71.8,218.6L-71.8,218.6z"/></svg>
